PathFileType	4	(X/Y/Z)	s11c0202.trc
DataRate	CameraRate	NumFrames	NumMarkers	Units	OrigDataRate	OrigDataStartFrame	OrigNumFrames
200	200	4	48	mm	200	1250	2000
Frame#	Time	racr			lacr			c7			jug			rlel			rdr			llel			ldr			s2			lic			ric			lasi			rasi			rpsi			lpsi			rgt			lgt			rth1			rth2			rth3			rth4			rlfc			rmfc			rsh1			rsh2			rsh3			rsh4			rlmal			rcal			rtoe			rmt5			lth1			lth2			lth4			lth3			llfc			lmfc			llmal			lcal			lmt5			lsh1			lsh2			lsh3			lsh4			ltoe			SBIKE			LBIKE			RBIKE			
		X1	Y1	Z1	X2	Y2	Z2	X3	Y3	Z3	X4	Y4	Z4	X5	Y5	Z5	X6	Y6	Z6	X7	Y7	Z7	X8	Y8	Z8	X9	Y9	Z9	X10	Y10	Z10	X11	Y11	Z11	X12	Y12	Z12	X13	Y13	Z13	X14	Y14	Z14	X15	Y15	Z15	X16	Y16	Z16	X17	Y17	Z17	X18	Y18	Z18	X19	Y19	Z19	X20	Y20	Z20	X21	Y21	Z21	X22	Y22	Z22	X23	Y23	Z23	X24	Y24	Z24	X25	Y25	Z25	X26	Y26	Z26	X27	Y27	Z27	X28	Y28	Z28	X29	Y29	Z29	X30	Y30	Z30	X31	Y31	Z31	X32	Y32	Z32	X33	Y33	Z33	X34	Y34	Z34	X35	Y35	Z35	X36	Y36	Z36	X37	Y37	Z37	X38	Y38	Z38	X39	Y39	Z39	X40	Y40	Z40	X41	Y41	Z41	X42	Y42	Z42	X43	Y43	Z43	X44	Y44	Z44	X45	Y45	Z45	X46	Y46	Z46	X47	Y47	Z47	X48	Y48	Z48	
1250	6.2500	517.275413	1330.693560	-94.812836	527.741576	1307.610540	-397.660169	460.805892	1438.463668	-255.749302	469.327482	1253.057699	-247.702742	557.074216	1114.598580	74.642623	759.654010	975.712184	-74.190088	504.244417	1074.351873	-605.314473	771.068487	953.807205	-502.670324	-106.373823	1227.706004	-298.327511	114.868762	1210.756808	-494.611618	97.423664	1246.691831	-88.021952	138.233408	1139.838106	-466.044404	120.554192	1189.440211	-133.307526	-57.849497	1304.249064	-256.989654	-61.619168	1288.517499	-342.974588	67.031504	1132.102570	-63.851905	2.358034	1075.127447	-497.610910	202.095418	1077.444545	-70.526367	290.668375	1072.549292	-83.337817	363.363979	1025.342701	-92.449562	299.829388	1105.821078	-98.790862	468.147747	982.516355	-113.615913	469.583029	953.850776	-247.299781	419.364015	831.724924	-90.673485	402.641403	745.119196	-102.094208	347.924162	677.881321	-96.224012	426.055182	736.028670	-132.700335	277.060374	548.068202	-99.447867	206.783105	539.476914	-141.284096	482.408287	456.598360	-154.536689	412.758518	441.020081	-81.401376	85.054456	945.335038	-513.661538	149.109538	888.715474	-512.987967	180.658537	908.046398	-513.539091	177.953830	804.050742	-502.261452	248.677160	686.085376	-473.473498	280.311504	687.100508	-348.868363	9.020558	331.348288	-416.948319	-52.093312	299.403114	-374.871235	130.405311	206.570193	-452.340287	175.484182	584.160396	-482.763650	152.406046	504.174148	-460.385494	90.061909	443.154349	-447.383172	182.228674	492.639074	-439.626358	232.384109	208.262747	-389.650809	-215.873690	952.576201	-259.736317	-17.858248	80.896790	-461.243663	-17.915870	81.488947	-62.471006	
1251	6.2550	516.211385	1330.243809	-94.400898	528.173451	1304.618225	-396.245926	460.142501	1437.860572	-256.264833	468.352981	1252.307098	-246.390465	558.839478	1115.598210	74.995296	759.726072	975.487846	-73.226330	504.193068	1073.000077	-606.231816	769.841235	953.372328	-504.157643	-107.355629	1227.845178	-296.553293	113.738040	1210.535100	-495.044673	96.762586	1245.573381	-88.494117	137.108170	1138.589624	-467.657441	120.473024	1187.167016	-133.591213	-57.778977	1303.636920	-257.438612	-62.075626	1288.174112	-343.541886	65.988365	1129.712454	-64.695399	1.531944	1073.998754	-496.664270	200.856020	1072.612708	-71.390221	289.356045	1066.077143	-84.040367	361.286816	1017.452998	-93.084658	299.197338	1099.316531	-99.472102	464.827318	972.798703	-114.146862	466.820895	942.998128	-247.136814	416.714995	820.495968	-90.287825	400.818403	733.713836	-101.393718	346.850647	665.816521	-95.103143	424.068536	724.860535	-132.252985	278.619887	534.579763	-98.484754	208.602061	522.959347	-140.767809	487.024493	452.991694	-154.396921	418.496589	433.921538	-81.039085	87.976444	946.030216	-513.930686	153.398335	890.995727	-513.135411	184.437854	911.131492	-513.376658	184.263292	807.023739	-502.994421	256.316670	690.349587	-474.326108	288.145608	691.557248	-349.855288	7.371651	342.775795	-416.916922	-54.577226	313.203827	-374.890785	124.663328	214.145792	-452.249557	180.130023	590.351406	-483.091052	155.132972	510.995173	-460.674476	91.269087	451.570041	-447.512221	184.659626	498.693755	-439.876243	226.576573	212.115106	-389.548071	-215.909869	952.514361	-259.934259	-17.854396	80.852977	-461.269452	-17.967882	81.485329	-62.484723	
1252	6.2600	515.139684	1329.898132	-93.826737	528.394171	1302.793352	-395.692013	459.442816	1437.413328	-256.966467	467.587991	1251.790521	-245.462726	560.433630	1116.662067	75.070324	759.661025	975.086890	-72.310809	503.780172	1072.495027	-606.386289	767.992992	951.736058	-504.682370	-107.255503	1226.709120	-297.600752	112.580438	1210.227262	-495.321232	96.278193	1244.146793	-88.940503	136.133387	1137.385495	-469.116751	120.892860	1184.656611	-134.732569	-57.591855	1302.610894	-258.083024	-62.554773	1287.471554	-343.943889	65.246442	1126.871920	-65.568413	1.865832	1073.200724	-496.928154	199.743171	1067.356580	-72.105419	287.999810	1059.218550	-84.592263	359.125268	1008.975879	-93.812443	298.496276	1092.710206	-99.932849	461.519952	962.256429	-114.635799	463.913349	931.552576	-246.816858	413.908656	808.549262	-89.984037	399.199376	721.613771	-100.109814	345.863744	653.086231	-94.078046	422.127565	712.940022	-131.875739	280.176987	521.109325	-97.983008	209.848336	506.858379	-139.542248	491.245656	448.542416	-154.299127	423.793256	426.518479	-80.706640	91.131054	946.790377	-514.028389	157.899650	893.393767	-513.126909	188.408025	914.250413	-513.050851	190.785754	810.040082	-503.193188	263.878880	694.678740	-474.983888	295.724664	696.113730	-350.449955	6.356073	354.201469	-416.983465	-56.317319	327.177537	-374.965943	119.452218	222.000685	-452.186375	185.046210	596.880115	-483.243694	158.272572	518.332010	-461.139505	92.995897	460.124940	-447.645597	187.287023	504.015128	-439.002072	221.096401	216.450901	-389.372762	-215.920962	952.452116	-260.090395	-17.859926	80.767976	-461.298861	-18.152322	81.320656	-62.540168	
1253	6.2650	514.118838	1329.786954	-93.287684	528.354548	1302.219751	-395.937650	458.904522	1437.124976	-257.857800	467.208706	1251.513975	-244.806743	561.876229	1117.660302	74.593911	759.466103	974.430777	-71.350625	503.110858	1072.335873	-606.272635	765.824362	948.994799	-504.253906	-107.692418	1225.555193	-298.166043	111.437262	1209.614949	-495.429747	96.132601	1242.249353	-89.571646	135.084623	1136.141540	-470.478904	121.041056	1182.032073	-134.633841	-57.831522	1301.592000	-258.464712	-63.142971	1286.494081	-344.314204	64.664388	1123.973564	-66.217120	2.562770	1071.666952	-495.818891	198.636306	1061.828179	-72.659902	286.757309	1051.741684	-84.963496	357.002092	999.303824	-94.962137	297.814896	1084.868676	-99.643095	457.851682	950.852257	-114.900471	459.372983	919.389643	-245.143904	411.041013	795.997545	-89.706699	397.153593	709.095042	-99.717735	345.133988	639.665296	-93.309769	420.253838	700.567806	-131.687803	281.805260	507.120044	-98.184477	211.871924	490.597689	-139.571329	495.061696	443.136208	-154.207195	428.513815	418.395504	-80.499849	94.606794	947.711816	-514.030920	162.551490	895.744308	-512.945155	192.608134	917.299696	-512.512001	197.195596	813.095791	-503.463373	271.434272	699.223601	-475.444046	302.835055	700.724146	-350.803108	6.095961	365.906035	-417.211603	-57.267113	341.590836	-375.160694	114.758919	230.145366	-452.204963	190.218471	603.637351	-483.357900	161.759295	525.717465	-461.240353	95.288409	468.941105	-447.724497	190.567495	510.685575	-439.230434	216.104731	220.962291	-389.277726	-215.926650	952.371968	-260.252316	-17.851751	80.730159	-461.338292	-18.114959	81.273319	-62.538926	
